<svg xmlns="http://www.w3.org/2000/svg" viewBox="0 0 122.15 122.15"><defs><style>.cls-1{fill:#fff;stroke-width:3px;}.cls-1,.cls-10{stroke:#e31c3d;stroke-miterlimit:10;}.cls-2{fill:#323a45;}.cls-3{fill:#e31c3d;}.cls-4{fill:#2e8540;}.cls-5{fill:#94bfa2;}.cls-6{fill:#3fa9f5;}.cls-7{fill:#e59393;}.cls-8{fill:#48a463;}.cls-9{fill:#9bdaf1;}.cls-10{fill:none;}</style></defs><title>abc-store-logoAsset 2</title><g id="Layer_2" data-name="Layer 2"><g id="Layer_1-2" data-name="Layer 1"><circle class="cls-1" cx="61.08" cy="61.08" r="59.58"/><path class="cls-2" d="M14.34,77.24l0-2.95,2.78-.6L27.47,44.35h6.91L44.74,73.69l3,.6v2.95h-14V74.29l3.51-.6-1.61-5.25H24l-1.53,5.27,3.55.58v2.95Zm14.59-26-4,13.88h9.69L30.38,51.2l-.75-3.14Z"/><path class="cls-2" d="M48.27,77.24V74.29l3.53-.58V48l-3.49-.67V44.48h6.82q1.08,0,2,0l1.68-.1,1.58-.1q.79,0,1.67,0,6.18,0,9.06,1.79A6.13,6.13,0,0,1,74,51.6a9.25,9.25,0,0,1-.53,3.23A7.61,7.61,0,0,1,72,57.29,7.41,7.41,0,0,1,69.79,59a9.38,9.38,0,0,1-2.79.88,12.71,12.71,0,0,1,3.64.55,9.22,9.22,0,0,1,3,1.51,7.14,7.14,0,0,1,2,2.37,6.69,6.69,0,0,1,.72,3.13,11.56,11.56,0,0,1-.62,3.78,7.77,7.77,0,0,1-2.16,3.23,11.09,11.09,0,0,1-4.13,2.25,21.55,21.55,0,0,1-6.53.84q-.86,0-1.67,0l-1.71-.09-2-.09q-1.06,0-2.45,0ZM58.6,47.32V58.64l.8.08,1,0h1.93a5.79,5.79,0,0,0,2.27-.4,3.63,3.63,0,0,0,1.52-1.17A4.88,4.88,0,0,0,67,55.28a12.77,12.77,0,0,0,.25-2.66,9.16,9.16,0,0,0-.29-2.44,3.89,3.89,0,0,0-1-1.72,4.09,4.09,0,0,0-1.77-1,9.28,9.28,0,0,0-2.67-.33,17.07,17.07,0,0,0-1.75.09Zm0,14.49V74.14a2,2,0,0,0,.58.18,8.53,8.53,0,0,0,.85.12l1,.06,1,0a10.72,10.72,0,0,0,3.29-.44,5.67,5.67,0,0,0,2.22-1.27,4.91,4.91,0,0,0,1.26-2,8.71,8.71,0,0,0,.4-2.73,9.92,9.92,0,0,0-.38-2.93,4.43,4.43,0,0,0-1.18-2,4.84,4.84,0,0,0-2.07-1.1,11.49,11.49,0,0,0-3-.34H60.41l-1.08,0Z"/><path class="cls-2" d="M94.23,77.74a17.21,17.21,0,0,1-6.71-1.22,13.34,13.34,0,0,1-4.86-3.42,14.6,14.6,0,0,1-3-5.28,21.9,21.9,0,0,1-1-6.8A17.75,17.75,0,0,1,80,54.09a16,16,0,0,1,3.57-5.33,15.78,15.78,0,0,1,5.37-3.42,18.31,18.31,0,0,1,6.69-1.21,22.74,22.74,0,0,1,2.95.18q1.4.18,2.62.41t2.23.45q1,.23,1.74.33l-.5,8.57h-4.41L99,48.42a3.17,3.17,0,0,0-.55-.51,3.14,3.14,0,0,0-.82-.42,6.62,6.62,0,0,0-1.17-.28,10.76,10.76,0,0,0-1.64-.11,7.06,7.06,0,0,0-6.06,3.24A12.64,12.64,0,0,0,87,54.42a23.9,23.9,0,0,0-.61,5.75,29.42,29.42,0,0,0,.5,5.47,17.27,17.27,0,0,0,1.52,4.64A9.25,9.25,0,0,0,91,73.5a5.94,5.94,0,0,0,3.72,1.21,12.44,12.44,0,0,0,1.85-.12,7.6,7.6,0,0,0,1.33-.31,3.47,3.47,0,0,0,.93-.46,4.35,4.35,0,0,0,.62-.55l2-4.76,3.79.22L104.69,76a9.18,9.18,0,0,0-1.87.33q-.95.27-2.13.57t-2.74.55A24.07,24.07,0,0,1,94.23,77.74Z"/><path class="cls-2" d="M35.72,99.15a6.68,6.68,0,0,1-3-.64,7.09,7.09,0,0,1-2.21-1.67l.7-.75a6.21,6.21,0,0,0,2,1.51,5.69,5.69,0,0,0,2.49.56,4.24,4.24,0,0,0,2.79-.85,2.75,2.75,0,0,0,1-2.22,3,3,0,0,0-.22-1.22,2.73,2.73,0,0,0-.59-.86,3.64,3.64,0,0,0-.87-.62l-1.06-.51-2.33-1q-.49-.21-1-.51a4.37,4.37,0,0,1-1-.76,4,4,0,0,1-.76-1.07,3.32,3.32,0,0,1-.3-1.48,3.41,3.41,0,0,1,.34-1.53,3.64,3.64,0,0,1,.93-1.19A4.32,4.32,0,0,1,34,83.52a5.52,5.52,0,0,1,1.78-.28,5.43,5.43,0,0,1,2.48.55,6.32,6.32,0,0,1,1.78,1.29l-.61.7a5.41,5.41,0,0,0-1.58-1.13,4.78,4.78,0,0,0-2.07-.43,3.84,3.84,0,0,0-2.47.75,2.43,2.43,0,0,0-.93,2,2.33,2.33,0,0,0,.26,1.14,2.83,2.83,0,0,0,.65.8,4.65,4.65,0,0,0,.86.58q.47.24.89.43l2.33,1a10.26,10.26,0,0,1,1.23.63,4.87,4.87,0,0,1,1,.81,3.62,3.62,0,0,1,.71,1.11A3.94,3.94,0,0,1,40.64,95a3.87,3.87,0,0,1-.35,1.64,3.78,3.78,0,0,1-1,1.3,4.75,4.75,0,0,1-1.55.86A6.16,6.16,0,0,1,35.72,99.15Z"/><path class="cls-2" d="M46.7,98.87V84.45H41.8v-.93H52.66v.93H47.77V98.87Z"/><path class="cls-2" d="M60.44,99.15a5.69,5.69,0,0,1-2.54-.57,5.82,5.82,0,0,1-2-1.62,7.69,7.69,0,0,1-1.3-2.53,10.92,10.92,0,0,1-.47-3.3,10.7,10.7,0,0,1,.47-3.27,7.59,7.59,0,0,1,1.3-2.49,5.64,5.64,0,0,1,2-1.58,6.21,6.21,0,0,1,5.1,0,5.64,5.64,0,0,1,2,1.58,7.61,7.61,0,0,1,1.3,2.49,10.72,10.72,0,0,1,.47,3.27,11,11,0,0,1-.47,3.3A7.71,7.71,0,0,1,65,97a5.82,5.82,0,0,1-2,1.62A5.74,5.74,0,0,1,60.44,99.15Zm0-1a4.49,4.49,0,0,0,2.12-.5,4.85,4.85,0,0,0,1.64-1.42A6.83,6.83,0,0,0,65.26,94a10.47,10.47,0,0,0,.37-2.9,10.26,10.26,0,0,0-.37-2.87A6.56,6.56,0,0,0,64.2,86.1a4.84,4.84,0,0,0-1.64-1.39,4.59,4.59,0,0,0-2.12-.49,4.6,4.6,0,0,0-3.77,1.88,6.68,6.68,0,0,0-1,2.18,10.25,10.25,0,0,0-.37,2.87,10.46,10.46,0,0,0,.37,2.9,7,7,0,0,0,1,2.21,4.7,4.7,0,0,0,1.64,1.42A4.55,4.55,0,0,0,60.44,98.17Z"/><path class="cls-2" d="M70.29,98.87V83.52h4.4a9,9,0,0,1,2.07.22,4.24,4.24,0,0,1,1.58.71,3.29,3.29,0,0,1,1,1.26,4.36,4.36,0,0,1,.36,1.86,3.88,3.88,0,0,1-1.06,2.89,4.83,4.83,0,0,1-2.88,1.28L80,98.87H78.79l-4.17-7.06H71.36v7.06Zm1.07-7.94h3.05a5.09,5.09,0,0,0,3.13-.83,3,3,0,0,0,1.08-2.53,2.68,2.68,0,0,0-1.09-2.43,5.73,5.73,0,0,0-3.12-.71H71.36Z"/><path class="cls-2" d="M83,98.87V83.52h8.41v.93H84v5.8h6.15v.93H84v6.75H91.6v.93Z"/><path class="cls-3" d="M56.8,27.14c0-.17,0-.34,0-.51a8.55,8.55,0,0,1-4.89-6.52,8.54,8.54,0,0,0,9.14,14.42A8.54,8.54,0,0,1,56.8,27.14Z"/><path class="cls-4" d="M68.91,19.37a8.53,8.53,0,0,1-3.66,6.52,8.44,8.44,0,0,1-4.17,8.64,8.54,8.54,0,1,0,7.83-15.16Z"/><path class="cls-5" d="M65.35,27.14a8.57,8.57,0,0,0-.1-1.25,8.51,8.51,0,0,1-8.42.74c0,.17,0,.34,0,.51a8.54,8.54,0,0,0,4.27,7.4A8.54,8.54,0,0,0,65.35,27.14Z"/><path class="cls-6" d="M61.08,19.74a8.49,8.49,0,0,1,7.83-.37c0-.17,0-.34,0-.51a8.55,8.55,0,1,0-17,1.25,8.52,8.52,0,0,1,9.14-.37Z"/><path class="cls-7" d="M56.83,26.63a8.53,8.53,0,0,1,4.25-6.89,8.52,8.52,0,0,0-9.14.37A8.55,8.55,0,0,0,56.83,26.63Z"/><path class="cls-8" d="M61.08,19.74a8.54,8.54,0,0,1,4.17,6.15,8.53,8.53,0,0,0,3.66-6.52,8.49,8.49,0,0,0-7.83.37Z"/><path class="cls-9" d="M61.08,19.74a8.53,8.53,0,0,0-4.25,6.89,8.51,8.51,0,0,0,8.42-.74A8.54,8.54,0,0,0,61.08,19.74Z"/><line class="cls-10" x1="94.66" y1="89.97" x2="104.65" y2="89.97"/><line class="cls-10" x1="18.14" y1="89.97" x2="28.12" y2="89.97"/></g></g></svg>