<svg id="Layer_1" data-name="Layer 1" xmlns="http://www.w3.org/2000/svg" viewBox="0 0 109.55 159.65"><defs><style>.cls-1{fill:#48a463;}</style></defs><title>ribbon</title><path class="cls-1" d="M142.21,72.25l-3.76-3.11a7.12,7.12,0,0,1-1.9-7.8l1.92-4.49a4.28,4.28,0,0,0-2.86-6l-4.7-1.31a7.12,7.12,0,0,1-4.9-6.36l-.07-4.88a4.28,4.28,0,0,0-5-4.28l-4.83.72A7.12,7.12,0,0,1,109,31l-2.05-4.43a4.28,4.28,0,0,0-6.34-1.86l-4.12,2.62a7.12,7.12,0,0,1-8-.61l-3.68-3.21a4.28,4.28,0,0,0-6.55.88l-2.7,4.07A7.12,7.12,0,0,1,68,31.14L63.34,29.7a4.28,4.28,0,0,0-5.62,3.47L56.91,38a7.12,7.12,0,0,1-5.81,5.54l-4.85.58a4.28,4.28,0,0,0-3.73,5.45l1.22,4.73a7.12,7.12,0,0,1-3.05,7.43l-4.19,2.5a4.28,4.28,0,0,0-1.19,6.5l3,3.82a7.12,7.12,0,0,1,.23,8l-2.81,4A4.28,4.28,0,0,0,37.33,93l4.33,2.26a7.12,7.12,0,0,1,3.48,7.24l-.94,4.79a4.28,4.28,0,0,0,4,5.23l4.87.3a7.12,7.12,0,0,1,6.12,5.2l1.09,4.76a4.28,4.28,0,0,0,5.81,3.14l4.57-1.71a7.12,7.12,0,0,1,7.7,2.26l2.93,3.91a4.28,4.28,0,0,0,6.59.5l3.48-3.42a7.12,7.12,0,0,1,8-1.07l4.26,2.38a4.28,4.28,0,0,0,6.22-2.22l1.79-4.54a7.12,7.12,0,0,1,6.83-4.21l4.86.44a4.28,4.28,0,0,0,4.78-4.56l-.21-4.88a7.12,7.12,0,0,1,4.53-6.63l4.62-1.58a4.28,4.28,0,0,0,2.51-6.11l-2.18-4.37a7.12,7.12,0,0,1,1.44-7.9l3.58-3.32A4.28,4.28,0,0,0,142.21,72.25ZM88.54,115.66a38.4,38.4,0,1,1,38.4-38.4A38.4,38.4,0,0,1,88.54,115.66Z" transform="translate(-34.31 -22.35)"/><path class="cls-1" d="M89.09,42.77a34.48,34.48,0,1,0,34.48,34.48A34.52,34.52,0,0,0,89.09,42.77Zm0,64.48a30,30,0,1,1,30-30A30,30,0,0,1,89.09,107.25Z" transform="translate(-34.31 -22.35)"/><polygon class="cls-1" points="46.54 63.56 36.15 46.81 27.48 56.6 46.54 79.44 74.54 36.42 60.97 30.36 46.54 63.56"/><path class="cls-1" d="M75.8,134.47,73,130.75l-.13,0-4.36,1.63a11.56,11.56,0,0,1-4.05.74,11.18,11.18,0,0,1-10.9-8.81l-.6-2.65L35.76,170.3l22.91-12.13L68.86,182l15.2-43A11.22,11.22,0,0,1,75.8,134.47Z" transform="translate(-34.31 -22.35)"/><path class="cls-1" d="M123.77,125.11h0c-.35,0-.71,0-1.07,0l-4.63-.42-.11.07L116.25,129a11.18,11.18,0,0,1-10.41,7.19,11.51,11.51,0,0,1-5.59-1.47l-4.06-2.27-.13,0-3.15,3.1L109.31,182l10.19-23.83,22.91,12.13-16.08-45.48A11.61,11.61,0,0,1,123.77,125.11Z" transform="translate(-34.31 -22.35)"/></svg>